<?xml version="1.0" standalone="no"?>
<!DOCTYPE svg PUBLIC "-//W3C//DTD SVG 20010904//EN"
 "http://www.w3.org/TR/2001/REC-SVG-20010904/DTD/svg10.dtd">
<svg version="1.0" xmlns="http://www.w3.org/2000/svg"
 width="260.000000pt" height="260.000000pt" viewBox="0 0 260.000000 260.000000"
 preserveAspectRatio="xMidYMid meet">
<metadata>
Created by potrace 1.11, written by Peter Selinger 2001-2013
</metadata>
<g transform="translate(0.000000,260.000000) scale(0.100000,-0.100000)"
fill="#000000" stroke="none">
<path d="M1217 1793 c1 -329 2 -605 2 -614 1 -12 15 -15 76 -16 70 0 75 1 75
21 0 12 1 287 1 611 l1 590 -79 3 -78 3 2 -598z"/>
<path d="M1460 2108 l0 -103 33 -22 c17 -12 64 -38 102 -59 39 -20 72 -40 75
-43 3 -3 40 -24 84 -46 43 -22 87 -47 97 -55 10 -8 50 -35 89 -59 l70 -43 0
-413 0 -412 -56 -37 c-31 -20 -62 -36 -69 -36 -8 0 -20 -6 -27 -13 -12 -13
-137 -84 -288 -165 -36 -19 -72 -40 -80 -47 -8 -7 -51 -32 -95 -55 -44 -23
-88 -49 -98 -58 -19 -17 -23 -16 -122 43 -33 19 -82 47 -110 61 -27 15 -51 30
-53 35 -2 5 -8 9 -13 9 -11 0 -407 227 -429 246 -14 12 -16 68 -15 436 l0 423
150 87 c83 48 159 93 170 100 11 7 22 13 25 13 3 0 24 13 47 28 24 15 45 27
48 27 3 0 29 15 58 33 l52 34 -2 79 c-1 43 -2 82 -2 86 -1 4 -35 -13 -77 -37
-42 -25 -78 -45 -80 -45 -3 0 -29 -15 -58 -34 -29 -18 -62 -37 -74 -40 -12 -4
-22 -12 -22 -17 0 -5 -6 -9 -13 -9 -7 0 -29 -11 -48 -25 -20 -13 -39 -21 -43
-18 -3 4 -6 2 -6 -4 0 -5 -21 -20 -46 -34 -25 -13 -53 -29 -62 -34 -10 -6 -52
-30 -94 -55 l-78 -44 0 -517 0 -517 292 -169 c161 -92 300 -172 309 -178 10
-5 41 -23 70 -38 30 -16 61 -34 69 -41 8 -6 35 -22 60 -35 25 -13 52 -30 61
-37 26 -23 67 -16 137 23 37 21 83 47 103 58 20 11 50 30 65 43 25 20 62 42
187 112 9 6 25 14 35 19 143 76 181 97 202 112 14 10 61 38 105 61 l80 43 0
545 0 545 -80 43 c-44 23 -91 51 -105 61 -21 15 -59 36 -202 112 -10 5 -26 13
-35 19 -10 5 -49 27 -86 47 -38 21 -95 55 -127 76 -33 20 -64 37 -70 37 -6 0
-10 -38 -10 -102z"/>
</g>
</svg>
